# MagicaVoxel @ Ephtracy

# material
mtllib blitzkreig.mtl
usemtl palette

# normals
vn -1 0 0
vn 1 0 0
vn 0 0 1
vn 0 0 -1
vn 0 -1 0
vn 0 1 0

# texcoords
vt 0.642578 0.5
vt 0.958984 0.5
vt 0.970703 0.5

# verts
v -0.5 0 0.5
v -0.5 0 -0.5
v -0.5 3 1.5
v -0.5 3 0.5
v -0.5 3 -0.5
v -0.5 3 -1.5
v -0.5 4 2.5
v -0.5 4 1.5
v -0.5 4 -1.5
v -0.5 4 -2.5
v -0.5 5 2.5
v -0.5 5 1.5
v -0.5 5 0.5
v -0.5 5 -0.5
v -0.5 5 -1.5
v -0.5 5 -2.5
v -0.5 14 1.5
v -0.5 14 0.5
v -0.5 14 -0.5
v -0.5 14 -1.5
v -0.5 15 0.5
v -0.5 15 -0.5
v 0.5 0 0.5
v 0.5 0 -0.5
v 0.5 3 1.5
v 0.5 3 0.5
v 0.5 3 -0.5
v 0.5 3 -1.5
v 0.5 4 2.5
v 0.5 4 1.5
v 0.5 4 -1.5
v 0.5 4 -2.5
v 0.5 5 2.5
v 0.5 5 1.5
v 0.5 5 0.5
v 0.5 5 -0.5
v 0.5 5 -1.5
v 0.5 5 -2.5
v 0.5 14 1.5
v 0.5 14 0.5
v 0.5 14 -0.5
v 0.5 14 -1.5
v 0.5 15 0.5
v 0.5 15 -0.5
v -0.5 4 2.5
v -0.5 5 2.5
v 0.5 4 2.5
v 0.5 5 2.5
v -0.5 3 1.5
v -0.5 4 1.5
v -0.5 5 1.5
v -0.5 14 1.5
v 0.5 3 1.5
v 0.5 4 1.5
v 0.5 5 1.5
v 0.5 14 1.5
v -0.5 0 0.5
v -0.5 3 0.5
v -0.5 14 0.5
v -0.5 15 0.5
v 0.5 0 0.5
v 0.5 3 0.5
v 0.5 14 0.5
v 0.5 15 0.5
v -0.5 0 -0.5
v -0.5 3 -0.5
v -0.5 14 -0.5
v -0.5 15 -0.5
v 0.5 0 -0.5
v 0.5 3 -0.5
v 0.5 14 -0.5
v 0.5 15 -0.5
v -0.5 3 -1.5
v -0.5 4 -1.5
v -0.5 5 -1.5
v -0.5 14 -1.5
v 0.5 3 -1.5
v 0.5 4 -1.5
v 0.5 5 -1.5
v 0.5 14 -1.5
v -0.5 4 -2.5
v -0.5 5 -2.5
v 0.5 4 -2.5
v 0.5 5 -2.5
v -0.5 0 0.5
v 0.5 0 0.5
v -0.5 0 -0.5
v 0.5 0 -0.5
v -0.5 3 1.5
v 0.5 3 1.5
v -0.5 3 0.5
v 0.5 3 0.5
v -0.5 3 -0.5
v 0.5 3 -0.5
v -0.5 3 -1.5
v 0.5 3 -1.5
v -0.5 4 2.5
v 0.5 4 2.5
v -0.5 4 1.5
v 0.5 4 1.5
v -0.5 4 -1.5
v 0.5 4 -1.5
v -0.5 4 -2.5
v 0.5 4 -2.5
v -0.5 5 2.5
v 0.5 5 2.5
v -0.5 5 1.5
v 0.5 5 1.5
v -0.5 5 -1.5
v 0.5 5 -1.5
v -0.5 5 -2.5
v 0.5 5 -2.5
v -0.5 14 1.5
v 0.5 14 1.5
v -0.5 14 0.5
v 0.5 14 0.5
v -0.5 14 -0.5
v 0.5 14 -0.5
v -0.5 14 -1.5
v 0.5 14 -1.5
v -0.5 15 0.5
v 0.5 15 0.5
v -0.5 15 -0.5
v 0.5 15 -0.5

# faces
f 4/1/1 2/1/1 1/1/1
f 5/1/1 2/1/1 4/1/1
f 8/1/1 4/1/1 3/1/1
f 8/1/1 6/1/1 5/1/1
f 8/1/1 5/1/1 4/1/1
f 9/1/1 6/1/1 8/1/1
f 11/1/1 8/1/1 7/1/1
f 12/3/1 9/3/1 8/3/1
f 12/1/1 8/1/1 11/1/1
f 13/3/1 9/3/1 12/3/1
f 14/3/1 9/3/1 13/3/1
f 15/1/1 10/1/1 9/1/1
f 15/3/1 9/3/1 14/3/1
f 16/1/1 10/1/1 15/1/1
f 17/2/1 13/2/1 12/2/1
f 18/3/1 14/3/1 13/3/1
f 18/2/1 13/2/1 17/2/1
f 19/2/1 15/2/1 14/2/1
f 19/3/1 14/3/1 18/3/1
f 20/2/1 15/2/1 19/2/1
f 21/2/1 19/2/1 18/2/1
f 22/2/1 19/2/1 21/2/1
f 23/1/2 24/1/2 26/1/2
f 26/1/2 24/1/2 27/1/2
f 25/1/2 26/1/2 30/1/2
f 27/1/2 28/1/2 30/1/2
f 26/1/2 27/1/2 30/1/2
f 30/1/2 28/1/2 31/1/2
f 29/1/2 30/1/2 33/1/2
f 30/3/2 31/3/2 34/3/2
f 33/1/2 30/1/2 34/1/2
f 34/3/2 31/3/2 35/3/2
f 35/3/2 31/3/2 36/3/2
f 31/1/2 32/1/2 37/1/2
f 36/3/2 31/3/2 37/3/2
f 37/1/2 32/1/2 38/1/2
f 34/2/2 35/2/2 39/2/2
f 35/3/2 36/3/2 40/3/2
f 39/2/2 35/2/2 40/2/2
f 36/2/2 37/2/2 41/2/2
f 40/3/2 36/3/2 41/3/2
f 41/2/2 37/2/2 42/2/2
f 40/2/2 41/2/2 43/2/2
f 43/2/2 41/2/2 44/2/2
f 47/1/3 46/1/3 45/1/3
f 48/1/3 46/1/3 47/1/3
f 53/1/3 50/1/3 49/1/3
f 54/1/3 50/1/3 53/1/3
f 55/2/3 52/2/3 51/2/3
f 56/2/3 52/2/3 55/2/3
f 61/1/3 58/1/3 57/1/3
f 62/1/3 58/1/3 61/1/3
f 63/2/3 60/2/3 59/2/3
f 64/2/3 60/2/3 63/2/3
f 65/1/4 66/1/4 69/1/4
f 69/1/4 66/1/4 70/1/4
f 67/2/4 68/2/4 71/2/4
f 71/2/4 68/2/4 72/2/4
f 73/1/4 74/1/4 77/1/4
f 77/1/4 74/1/4 78/1/4
f 75/2/4 76/2/4 79/2/4
f 79/2/4 76/2/4 80/2/4
f 81/1/4 82/1/4 83/1/4
f 83/1/4 82/1/4 84/1/4
f 87/1/5 86/1/5 85/1/5
f 88/1/5 86/1/5 87/1/5
f 91/1/5 90/1/5 89/1/5
f 92/1/5 90/1/5 91/1/5
f 95/1/5 94/1/5 93/1/5
f 96/1/5 94/1/5 95/1/5
f 99/1/5 98/1/5 97/1/5
f 100/1/5 98/1/5 99/1/5
f 103/1/5 102/1/5 101/1/5
f 104/1/5 102/1/5 103/1/5
f 105/1/6 106/1/6 107/1/6
f 107/1/6 106/1/6 108/1/6
f 109/1/6 110/1/6 111/1/6
f 111/1/6 110/1/6 112/1/6
f 113/2/6 114/2/6 115/2/6
f 115/2/6 114/2/6 116/2/6
f 117/2/6 118/2/6 119/2/6
f 119/2/6 118/2/6 120/2/6
f 121/2/6 122/2/6 123/2/6
f 123/2/6 122/2/6 124/2/6
