# MagicaVoxel @ Ephtracy

# material
mtllib player.mtl
usemtl palette

# normals
vn -1 0 0
vn 1 0 0
vn 0 0 1
vn 0 0 -1
vn 0 -1 0
vn 0 1 0

# texcoords
vt 0.0332031 0.5
vt 0.806641 0.5
vt 0.861328 0.5
vt 0.873047 0.5
vt 0.962891 0.5

# verts
v -4 8 1
v -4 8 -1
v -4 9 1
v -4 9 -1
v -4 18 1
v -4 18 -1
v -4 19 1
v -4 19 -1
v -4 23 1
v -4 23 -1
v -3 18 1
v -3 18 -1
v -3 19 1
v -3 19 -1
v -3 23 1
v -3 23 -1
v -3 24 1
v -3 24 -1
v -2 7 1
v -2 7 -1
v -2 8 1
v -2 8 -1
v 0 7 1
v 0 7 -1
v 0 8 1
v 0 8 -1
v 1 18 1
v 1 18 -1
v 1 19 1
v 1 19 -1
v 1 23 1
v 1 23 -1
v 1 24 1
v 1 24 -1
v 2 8 1
v 2 8 -1
v 2 9 1
v 2 9 -1
v 2 18 1
v 2 18 -1
v 2 19 1
v 2 19 -1
v 2 23 1
v 2 23 -1
v -4 8 1
v -4 9 1
v -4 18 1
v -4 19 1
v -4 23 1
v -3 18 1
v -3 19 1
v -3 21 1
v -3 22 1
v -3 23 1
v -3 24 1
v -2 7 1
v -2 8 1
v -2 19 1
v -2 20 1
v -2 21 1
v -2 22 1
v 0 7 1
v 0 8 1
v 0 19 1
v 0 20 1
v 0 21 1
v 0 22 1
v 1 18 1
v 1 19 1
v 1 21 1
v 1 22 1
v 1 23 1
v 1 24 1
v 2 8 1
v 2 9 1
v 2 18 1
v 2 19 1
v 2 23 1
v -4 8 -1
v -4 9 -1
v -4 18 -1
v -4 19 -1
v -4 23 -1
v -3 18 -1
v -3 19 -1
v -3 23 -1
v -3 24 -1
v -2 7 -1
v -2 8 -1
v 0 7 -1
v 0 8 -1
v 1 18 -1
v 1 19 -1
v 1 23 -1
v 1 24 -1
v 2 8 -1
v 2 9 -1
v 2 18 -1
v 2 19 -1
v 2 23 -1
v -2 7 1
v 0 7 1
v -2 7 -1
v 0 7 -1
v -4 8 1
v -2 8 1
v 0 8 1
v 2 8 1
v -4 8 -1
v -2 8 -1
v 0 8 -1
v 2 8 -1
v -4 19 1
v -3 19 1
v 1 19 1
v 2 19 1
v -4 19 -1
v -3 19 -1
v 1 19 -1
v 2 19 -1
v -4 18 1
v -3 18 1
v 1 18 1
v 2 18 1
v -4 18 -1
v -3 18 -1
v 1 18 -1
v 2 18 -1
v -4 23 1
v -3 23 1
v 1 23 1
v 2 23 1
v -4 23 -1
v -3 23 -1
v 1 23 -1
v 2 23 -1
v -3 24 1
v 1 24 1
v -3 24 -1
v 1 24 -1

# faces
f 3/3/1 2/3/1 1/3/1
f 4/3/1 2/3/1 3/3/1
f 5/2/1 4/2/1 3/2/1
f 6/2/1 4/2/1 5/2/1
f 9/1/1 8/1/1 7/1/1
f 10/1/1 8/1/1 9/1/1
f 13/1/1 12/1/1 11/1/1
f 14/1/1 12/1/1 13/1/1
f 17/4/1 16/4/1 15/4/1
f 18/4/1 16/4/1 17/4/1
f 21/3/1 20/3/1 19/3/1
f 22/3/1 20/3/1 21/3/1
f 23/3/2 24/3/2 25/3/2
f 25/3/2 24/3/2 26/3/2
f 27/1/2 28/1/2 29/1/2
f 29/1/2 28/1/2 30/1/2
f 31/4/2 32/4/2 33/4/2
f 33/4/2 32/4/2 34/4/2
f 35/3/2 36/3/2 37/3/2
f 37/3/2 36/3/2 38/3/2
f 37/2/2 38/2/2 39/2/2
f 39/2/2 38/2/2 40/2/2
f 41/1/2 42/1/2 43/1/2
f 43/1/2 42/1/2 44/1/2
f 50/2/3 47/2/3 46/2/3
f 51/1/3 49/1/3 48/1/3
f 52/1/3 49/1/3 51/1/3
f 53/1/3 49/1/3 52/1/3
f 54/1/3 49/1/3 53/1/3
f 57/3/3 46/3/3 45/3/3
f 58/1/3 51/1/3 50/1/3
f 58/1/3 52/1/3 51/1/3
f 59/1/3 52/1/3 58/1/3
f 60/5/3 53/5/3 52/5/3
f 60/1/3 52/1/3 59/1/3
f 61/1/3 54/1/3 53/1/3
f 61/5/3 53/5/3 60/5/3
f 62/3/3 57/3/3 56/3/3
f 63/3/3 46/3/3 57/3/3
f 63/3/3 57/3/3 62/3/3
f 64/5/3 59/5/3 58/5/3
f 64/1/3 58/1/3 50/1/3
f 65/1/3 60/1/3 59/1/3
f 65/5/3 59/5/3 64/5/3
f 65/1/3 61/1/3 60/1/3
f 66/1/3 61/1/3 65/1/3
f 67/1/3 54/1/3 61/1/3
f 67/1/3 61/1/3 66/1/3
f 68/2/3 50/2/3 46/2/3
f 68/1/3 66/1/3 65/1/3
f 68/1/3 64/1/3 50/1/3
f 68/1/3 65/1/3 64/1/3
f 69/1/3 66/1/3 68/1/3
f 70/5/3 67/5/3 66/5/3
f 70/1/3 66/1/3 69/1/3
f 71/1/3 54/1/3 67/1/3
f 71/5/3 67/5/3 70/5/3
f 72/4/3 55/4/3 54/4/3
f 72/1/3 54/1/3 71/1/3
f 73/4/3 55/4/3 72/4/3
f 74/3/3 46/3/3 63/3/3
f 75/2/3 68/2/3 46/2/3
f 75/3/3 46/3/3 74/3/3
f 76/2/3 68/2/3 75/2/3
f 77/1/3 71/1/3 70/1/3
f 77/1/3 70/1/3 69/1/3
f 77/1/3 72/1/3 71/1/3
f 78/1/3 72/1/3 77/1/3
f 80/2/4 81/2/4 84/2/4
f 82/1/4 83/1/4 85/1/4
f 85/1/4 83/1/4 86/1/4
f 79/3/4 80/3/4 89/3/4
f 88/3/4 89/3/4 90/3/4
f 89/3/4 80/3/4 91/3/4
f 90/3/4 89/3/4 91/3/4
f 80/2/4 84/2/4 92/2/4
f 84/1/4 85/1/4 92/1/4
f 85/1/4 86/1/4 92/1/4
f 92/1/4 86/1/4 93/1/4
f 86/4/4 87/4/4 94/4/4
f 93/1/4 86/1/4 94/1/4
f 94/4/4 87/4/4 95/4/4
f 91/3/4 80/3/4 96/3/4
f 80/2/4 92/2/4 97/2/4
f 96/3/4 80/3/4 97/3/4
f 97/2/4 92/2/4 98/2/4
f 93/1/4 94/1/4 99/1/4
f 99/1/4 94/1/4 100/1/4
f 103/3/5 102/3/5 101/3/5
f 104/3/5 102/3/5 103/3/5
f 109/3/5 106/3/5 105/3/5
f 110/3/5 106/3/5 109/3/5
f 111/3/5 108/3/5 107/3/5
f 112/3/5 108/3/5 111/3/5
f 117/1/5 114/1/5 113/1/5
f 118/1/5 114/1/5 117/1/5
f 119/1/5 116/1/5 115/1/5
f 120/1/5 116/1/5 119/1/5
f 121/2/6 122/2/6 125/2/6
f 125/2/6 122/2/6 126/2/6
f 123/2/6 124/2/6 127/2/6
f 127/2/6 124/2/6 128/2/6
f 129/1/6 130/1/6 133/1/6
f 133/1/6 130/1/6 134/1/6
f 131/1/6 132/1/6 135/1/6
f 135/1/6 132/1/6 136/1/6
f 137/4/6 138/4/6 139/4/6
f 139/4/6 138/4/6 140/4/6
